<svg width="140" height="140" viewBox="0 0 140 140" fill="none" xmlns="http://www.w3.org/2000/svg">
<path d="M70 3C107.003 3 137 32.9969 137 70C137 107.003 107.003 137 70 137C32.9969 137 3 107.003 3 70C3 32.9969 32.9969 3 70 3ZM88.0898 65.2998C85.4298 55.3733 75.2264 49.4819 65.2998 52.1416C55.3731 54.8016 49.4817 65.0059 52.1416 74.9326C54.8017 84.8592 65.006 90.7497 74.9326 88.0898C84.859 85.4298 90.7495 75.2263 88.0898 65.2998Z" fill="#EC9A43"/>
<path d="M88.0898 65.2998L90.5047 64.6528L90.5046 64.6527L88.0898 65.2998ZM65.2998 52.1416L64.6528 49.7268L64.6527 49.7268L65.2998 52.1416ZM52.1416 74.9326L49.7268 75.5797L49.7268 75.5797L52.1416 74.9326ZM74.9326 88.0898L75.5797 90.5047L75.5797 90.5046L74.9326 88.0898ZM70 3V5.5C105.622 5.5 134.5 34.3776 134.5 70H137H139.5C139.5 31.6162 108.384 0.5 70 0.5V3ZM137 70H134.5C134.5 105.622 105.622 134.5 70 134.5V137V139.5C108.384 139.5 139.5 108.384 139.5 70H137ZM70 137V134.5C34.3776 134.5 5.5 105.622 5.5 70H3H0.5C0.5 108.384 31.6162 139.5 70 139.5V137ZM3 70H5.5C5.5 34.3776 34.3776 5.5 70 5.5V3V0.5C31.6162 0.5 0.5 31.6162 0.5 70H3ZM88.0898 65.2998L90.5046 64.6527C87.4873 53.3927 75.9131 46.7098 64.6528 49.7268L65.2998 52.1416L65.9468 54.5564C74.5397 52.2541 83.3724 57.3539 85.675 65.9469L88.0898 65.2998ZM65.2998 52.1416L64.6527 49.7268C53.3924 52.7441 46.7096 64.3193 49.7268 75.5797L52.1416 74.9326L54.5564 74.2856C52.2539 65.6925 57.3539 56.859 65.9469 54.5564L65.2998 52.1416ZM52.1416 74.9326L49.7268 75.5797C52.7443 86.8401 64.3195 93.5218 75.5797 90.5047L74.9326 88.0898L74.2856 85.675C65.6924 87.9776 56.859 82.8783 54.5564 74.2855L52.1416 74.9326ZM74.9326 88.0898L75.5797 90.5046C86.8398 87.4872 93.5216 75.9129 90.5047 64.6528L88.0898 65.2998L85.675 65.9468C87.9774 74.5398 82.8782 83.3724 74.2855 85.675L74.9326 88.0898Z" fill="#3A1812"/>
<ellipse cx="82.4778" cy="27.5915" rx="2.74387" ry="6.5" transform="rotate(43.7805 82.4778 27.5915)" fill="#3A1812"/>
<ellipse cx="108.869" cy="34.0506" rx="2.74387" ry="6.5" transform="rotate(-20.7597 108.869 34.0506)" fill="#3A1812"/>
<ellipse cx="125.5" cy="57.5709" rx="2.74387" ry="6.5" transform="rotate(44.2445 125.5 57.5709)" fill="#3A1812"/>
<ellipse cx="84.867" cy="43.0505" rx="2.74387" ry="6.5" transform="rotate(-53.8423 84.867 43.0505)" fill="#3A1812"/>
<ellipse cx="105.39" cy="55.6649" rx="2.74387" ry="6.5" transform="rotate(-42.0404 105.39 55.6649)" fill="#3A1812"/>
<ellipse cx="120.878" cy="84.0263" rx="2.74387" ry="6.5" transform="rotate(-54.2222 120.878 84.0263)" fill="#3A1812"/>
<path d="M103.578 79.3897C102.925 82.9197 101.188 85.5579 99.6975 85.2823C98.2073 85.0066 97.5286 81.9216 98.1816 78.3916C98.8345 74.8616 100.572 72.2235 102.062 72.4991C103.552 72.7747 104.231 75.8597 103.578 79.3897Z" fill="#3A1812"/>
<ellipse cx="36.0802" cy="31.0553" rx="2.74387" ry="6.5" transform="rotate(-23.1775 36.0802 31.0553)" fill="#3A1812"/>
<ellipse cx="39.2125" cy="56.0517" rx="2.74387" ry="6.5" transform="rotate(-24.7421 39.2125 56.0517)" fill="#3A1812"/>
<ellipse cx="40.7997" cy="120.185" rx="2.74387" ry="6.5" transform="rotate(-51.6524 40.7997 120.185)" fill="#3A1812"/>
<ellipse cx="17.6979" cy="52.3457" rx="2.74387" ry="6.5" transform="rotate(48.8061 17.6979 52.3457)" fill="#3A1812"/>
<ellipse cx="19.9326" cy="91.904" rx="2.74387" ry="6.5" transform="rotate(-10.9932 19.9326 91.904)" fill="#3A1812"/>
<ellipse cx="97.9014" cy="120.925" rx="2.74387" ry="6.5" transform="rotate(59.395 97.9014 120.925)" fill="#3A1812"/>
<ellipse cx="54.3898" cy="36.0379" rx="2.74387" ry="6.5" transform="rotate(26.9248 54.3898 36.0379)" fill="#3A1812"/>
<ellipse cx="65.0138" cy="16.9234" rx="2.74387" ry="6.5" transform="rotate(11.7866 65.0138 16.9234)" fill="#3A1812"/>
<ellipse cx="27.7761" cy="72.2265" rx="2.74387" ry="6.5" transform="rotate(-50.9391 27.7761 72.2265)" fill="#3A1812"/>
<ellipse cx="40.7943" cy="99.1946" rx="2.74387" ry="6.5" transform="rotate(51.4861 40.7943 99.1946)" fill="#3A1812"/>
<ellipse cx="59.6938" cy="103.986" rx="2.74387" ry="6.5" transform="rotate(30.9224 59.6938 103.986)" fill="#3A1812"/>
<ellipse cx="76.9555" cy="121.906" rx="2.74387" ry="6.5" transform="rotate(-34.6901 76.9555 121.906)" fill="#3A1812"/>
<ellipse cx="59.9555" cy="121.906" rx="2.74387" ry="6.5" transform="rotate(40.0981 59.9555 121.906)" fill="#3A1812"/>
<ellipse cx="108.838" cy="101.112" rx="2.74387" ry="6.5" transform="rotate(-52.8554 108.838 101.112)" fill="#3A1812"/>
<ellipse cx="84.6987" cy="100.985" rx="2.74387" ry="6.5" transform="rotate(-30.9941 84.6987 100.985)" fill="#3A1812"/>
</svg>
